<?xml version="1.0" encoding="UTF-8"?>
<svg id="Layer_2" data-name="Layer 2" xmlns="http://www.w3.org/2000/svg" viewBox="0 0 94.25 120">
  <defs>
    <style>
      .cls-1 {
        fill: #85bf54;
      }
    </style>
  </defs>
  <g id="Layer_1-2" data-name="Layer 1">
    <path class="cls-1" d="M71.19,56.72c-1.01,6.84-5.68,12.51-11.28,16.3.54,3.64-1.19,8.4,3.45,9.76,4.09,1.2,10.9.95,15.42,1.66,7.66,1.2,12.47,5.85,13.59,13.58.79,5.46,1.7,13.41,1.85,18.85.04,1.32.11,2.54-1.29,3.13H1.31c-1.49-.62-1.32-2-1.28-3.38.18-5.43,1.05-13.17,1.84-18.6,1.11-7.65,5.96-12.45,13.59-13.59,4.51-.67,11.32-.46,15.42-1.66,4.58-1.34,2.95-6.16,3.45-9.76-5.61-3.78-10.19-9.46-11.29-16.29-7.02.02-12.23-6.52-10.09-13.36.35-1.13,2.22-3.6,2.28-3.9.09-.45-.65-3.48-.71-4.37-.99-14.37,7.6-28,21.08-33,22.5-8.33,45.72,9.18,44.12,33-.07.97-.8,3.78-.7,4.37.06.38,1.76,2.51,2.12,3.54,2.42,6.95-2.71,13.73-9.95,13.71ZM75.33,37.05C78.19,17.12,60.71.57,40.91,4.83c-14.35,3.08-24.53,17.64-21.86,32.22l3.2-.81c.1-3.31-.54-7.06,2.38-9.4,3.1-2.47,5.65-.96,8.98-.49,7.66,1.1,15.24,1.44,22.95.59,3.09-.34,8.58-2.08,11.26-1.16,4.5,1.55,4.28,6.53,4.17,10.45l3.34.8ZM28.17,29.59c-1.1.36-1.68,1.28-1.74,2.42.77,12.62-3.42,27.5,8.3,36.21,11.14,8.28,27.49,3.49,31.88-9.74,1.75-5.27,1.78-20.39,1.23-26.22-.4-4.28-4.24-2.13-7.17-1.72-7.74,1.1-15.45,1.4-23.24.56-3.11-.33-6.17-1.1-9.26-1.51ZM22.28,52.57v-12.16c-7.5,1.25-7.5,10.91,0,12.16ZM71.97,52.57c7.5-1.25,7.5-10.91,0-12.16v12.16ZM55.92,75.09c-2.23.36-4.29,1.16-6.59,1.31-3.88.26-7.3-.34-11.01-1.31v4.79c0,1.79-2.52,5.06-4.14,5.95l13.02,9.65,12.85-9.27c.23-.33-1.7-1.75-2.07-2.19-.71-.82-2.06-3.13-2.06-4.15v-4.79ZM68.34,87.51l-3.3-.06-16.59,12.4c-.76.53-1.91.53-2.67,0l-16.53-12.45-6.46.38v12.16c5.99,1.7,7.4,9.53,2.31,13.3-6.61,4.9-15.35-2.88-10.95-10.18,1.15-1.91,2.72-2.4,4.51-3.52v-10.87c0-.51-2.44-.17-2.94-.1-4.5.66-8.03,3.36-9.29,7.79l-2,19.61h85.4l-2-19.61c-2.03-7.19-8.86-8.15-15.34-8.34v6.6c.94.54,1.93.69,2.94,1.2,3.41,1.71,5.61,5.37,5.87,9.14s.56,9.18-4.28,9.72c-2,.22-5.1.2-4.48-2.66.49-2.28,4.02-1.04,4.49-1.72,1.01-5.74-.78-12.57-7.98-11.34-5.29.9-5.5,6.93-5.07,11.16l.39.39c1.56-.02,4.13-.15,4.26,1.98.2,3.21-5.49,2.53-7.14,1.17-2.65-2.18-1.99-10.17-.61-13.04,1.27-2.63,4.49-5.35,7.47-5.6v-7.5ZM20.41,103.62c-4.66.25-4.2,7.76.96,6.91,3.95-.65,3.38-7.14-.96-6.91Z"/>
  </g>
</svg>