<?xml version="1.0" encoding="UTF-8"?>
<svg id="Layer_2" data-name="Layer 2" xmlns="http://www.w3.org/2000/svg" viewBox="0 0 154.72 135.54">
  <defs>
    <style>
      .cls-1 {
        opacity: .7;
      }

      .cls-2 {
        fill: #85bf54;
      }
    </style>
  </defs>
  <g id="Layer_1-2" data-name="Layer 1">
    <g>
      <g>
        <path class="cls-2" d="M154.72,100.71c-.65,1.12-1.63,1.65-2.92,1.86-1.93.31-3.84.77-5.92,1.21.39.97.72,1.83,1.08,2.69,2.16,5.2,4.32,10.4,6.47,15.6,1.01,2.44.58,3.48-1.83,4.49-2.41,1.01-4.82,2.02-7.25,3-2.18.88-3.22.43-4.15-1.76-.55-1.29-1.09-2.59-1.64-3.89-.02-.04-.08-.05-.27-.15-.04.4-.1.75-.11,1.1-.02,2.01.04,4.03-.07,6.04-.14,2.52-2.06,4.39-4.56,4.59-.4.03-.8.04-1.21.04-42.15,0-84.3,0-126.45,0-3.22,0-5.19-1.36-5.76-3.99-.13-.58-.13-1.2-.13-1.8,0-9.92,0-19.84,0-29.76,0-3.97,1.96-5.92,5.95-5.92,38.27,0,76.55,0,114.82,0h2v-5.52h-2.02c-38.02,0-76.04,0-114.06,0-.75,0-1.52,0-2.26-.11-2.59-.38-4.4-2.31-4.41-4.94-.04-10.47-.04-20.95,0-31.42.01-2.64,1.81-4.56,4.4-4.95.59-.09,1.2-.11,1.81-.11,41.9,0,83.8,0,125.7.02,1.18,0,2.46.15,3.51.63,2.1.96,2.77,2.86,2.76,5.11-.03,9.37,0,18.73-.03,28.1,0,1.09.29,1.87,1.08,2.65,4.63,4.56,9.21,9.17,13.79,13.77.6.6,1.12,1.27,1.68,1.91v1.51ZM133.24,52.04H39.01v31.46h83.86c0-.64,0-1.18,0-1.72,0-2.77,0-5.54,0-8.31,0-1.19.3-2.19,1.51-2.7,1.21-.51,2.14-.02,2.98.82,1.21,1.21,2.42,2.42,3.63,3.63.68.68,1.37,1.36,2.24,2.23v-25.41ZM38.99,130.54h94.3c0-6.14.02-12.18-.02-18.21,0-.96-.33-1.92-.55-3.16-2.09,1.36-3.88,2.55-5.7,3.69-2.16,1.36-4.08.36-4.13-2.18-.05-2.67-.01-5.34-.01-8.01,0-1.19,0-2.39,0-3.63H38.99v31.5ZM33.85,130.58v-31.55c-.35-.04-.59-.08-.83-.08-8.96,0-17.92.02-26.88-.03-1.17,0-1.27.53-1.27,1.46.02,9.66.01,19.33.02,28.99,0,.39.07.77.12,1.2h28.85ZM33.88,52.05H5v31.42h28.88v-31.42ZM127.88,79.44v26.99c1.29-.84,2.41-1.57,3.54-2.31,2.49-1.63,3.76-1.25,4.89,1.46,2.41,5.8,4.81,11.6,7.22,17.4.18.44.4.87.63,1.36,1.47-.61,2.79-1.17,4.16-1.75-.28-.71-.49-1.27-.72-1.82-2.38-5.76-4.78-11.51-7.13-17.28-.92-2.26-.23-3.53,2.15-4.07,1.47-.33,2.95-.64,4.35-.94-6.42-6.41-12.74-12.72-19.08-19.06Z"/>
        <path class="cls-2" d="M69.04,0c21,0,41.99,0,62.99,0,1.59,0,3.12.08,4.39,1.22,1.11.99,1.75,2.21,1.75,3.7,0,10.52.04,21.05-.02,31.57-.02,2.89-2.13,4.85-5.01,4.98-.45.02-.91,0-1.36,0-41.79,0-83.58,0-125.37,0-4.61,0-6.4-1.78-6.4-6.38,0-9.67,0-19.33,0-29C0,1.86,1.84,0,6.05,0c21,0,41.99,0,62.99,0ZM38.99,36.48h94.2V4.98H38.99v31.5ZM33.88,4.99H4.96c-.03.58-.07,1.07-.07,1.56,0,9.46.02,18.93-.03,28.39,0,1.33.33,1.7,1.68,1.69,8.61-.06,17.22-.03,25.82-.03h1.53V4.99Z"/>
        <path class="cls-2" d="M92.56,75.43c-6.94,0-13.89,0-20.83,0-.6,0-1.22,0-1.8-.1-1.13-.2-1.95-1-1.83-2.05.1-.86.72-1.79,1.38-2.4.42-.39,1.33-.33,2.02-.33,14.09-.02,28.18-.02,42.27,0,.69,0,1.6-.06,2.02.33.66.61,1.27,1.54,1.38,2.4.13,1.07-.7,1.85-1.82,2.05-.59.11-1.2.1-1.8.1-6.99,0-13.99,0-20.98,0Z"/>
        <path class="cls-2" d="M69.2,60.11c6.94,0,13.89,0,20.83,0,.6,0,1.22-.01,1.8.1,1.11.22,1.75.94,1.86,2.07.11,1.13-.35,2.01-1.4,2.41-.64.24-1.37.3-2.07.3-14.09.02-28.18.01-42.27,0-.6,0-1.22-.04-1.78-.21-1.16-.33-1.76-1.22-1.68-2.38.08-1.22.77-2.06,2.06-2.23.55-.07,1.1-.07,1.66-.07,6.99,0,13.99,0,20.98,0Z"/>
        <path class="cls-2" d="M53.45,75.43c-2.06,0-4.12.03-6.18-.01-1.77-.04-2.85-1.02-2.81-2.47.03-1.37,1.1-2.39,2.76-2.41,4.12-.05,8.24-.05,12.35,0,1.77.02,2.81,1.03,2.78,2.51-.02,1.45-1.07,2.34-2.88,2.37-2.01.03-4.02,0-6.03,0Z"/>
        <path class="cls-2" d="M69.21,112.04c-6.74,0-13.49,0-20.23,0-.35,0-.7,0-1.06,0-2.28-.02-3.47-.87-3.46-2.47.01-1.59,1.23-2.46,3.49-2.46,14.09,0,28.18,0,42.27,0,.55,0,1.11.04,1.64.16,1.24.29,1.89,1.13,1.84,2.4-.05,1.27-.75,2.05-2.01,2.25-.59.09-1.2.1-1.8.1-6.89,0-13.79,0-20.68,0Z"/>
        <path class="cls-2" d="M94,122.48c-7.44,0-14.89,0-22.33,0-.5,0-1.01.03-1.51-.04-1.31-.21-2.07-1-2.15-2.33-.08-1.26.85-2.28,2.17-2.46.45-.06.9-.04,1.36-.04,14.94,0,29.88,0,44.82,0,.45,0,.91-.02,1.36.04,1.33.2,2.05,1.04,2.16,2.33.11,1.2-.9,2.3-2.19,2.45-.65.08-1.31.04-1.96.04-7.24,0-14.49,0-21.73,0Z"/>
        <path class="cls-2" d="M53.49,122.48c-2.06,0-4.12.02-6.18,0-1.75-.02-2.86-.99-2.85-2.43,0-1.45,1.1-2.41,2.86-2.42,4.07-.02,8.14-.02,12.2,0,1.78.01,2.82.95,2.82,2.44,0,1.48-1.04,2.4-2.83,2.42-2.01.03-4.02,0-6.03,0Z"/>
        <path class="cls-2" d="M28.41,110.83c.04,4.68-3.64,8.67-8.26,8.96-1.83.12-2.92-.62-3.11-2.09-.18-1.4.81-2.46,2.57-2.75,2.92-.48,4.48-2.68,3.71-5.21-.56-1.82-2.28-3.05-4.1-2.92-1.86.13-3.43,1.51-3.78,3.35-.48,2.49-1.39,3.43-2.98,3.09-1.66-.36-2.29-1.81-1.81-4.16.91-4.38,5.1-7.53,9.51-7.13,4.64.42,8.21,4.25,8.25,8.86Z"/>
        <path class="cls-2" d="M21.86,125.23c.02,1.33-.99,2.4-2.32,2.43-1.34.03-2.43-.97-2.5-2.28-.07-1.33,1.1-2.55,2.42-2.55,1.3,0,2.38,1.08,2.4,2.4Z"/>
        <path class="cls-2" d="M28.41,63.8c.03,4.78-3.78,8.78-8.57,9.01-1.49.07-2.63-.82-2.79-2.18-.15-1.25.71-2.32,2.14-2.62.34-.07.69-.12,1.04-.19,2.04-.43,3.46-2.27,3.29-4.26-.18-2.07-1.81-3.65-3.86-3.75-2.08-.1-3.83,1.29-4.22,3.33-.46,2.44-1.4,3.4-3,3.07-1.57-.32-2.21-1.77-1.8-4.05.78-4.28,5.07-7.65,9.25-7.27,4.93.45,8.5,4.17,8.52,8.9Z"/>
        <path class="cls-2" d="M19.43,80.66c-1.28-.03-2.4-1.16-2.39-2.43,0-1.37,1.15-2.44,2.55-2.38,1.34.06,2.32,1.13,2.28,2.47-.04,1.32-1.14,2.38-2.44,2.35Z"/>
        <path class="cls-2" d="M96.71,23.5c8.25,0,16.5,0,24.76,0,2.45,0,3.62.79,3.65,2.41.02,1.68-1.21,2.51-3.73,2.51-16.55,0-33.11,0-49.66,0-2.51,0-3.75-.84-3.72-2.52.02-1.62,1.2-2.41,3.65-2.41,8.35,0,16.71,0,25.06,0Z"/>
        <path class="cls-2" d="M69.04,13.06c7.04,0,14.09,0,21.13,0,.45,0,.91-.02,1.36.03,1.34.17,2.22,1.16,2.18,2.45-.05,1.36-.82,2.12-2.12,2.34-.49.08-1,.05-1.51.05-13.99,0-27.98,0-41.97,0-2.46,0-3.63-.77-3.65-2.41-.03-1.64,1.17-2.46,3.59-2.46,6.99,0,13.99,0,20.98,0Z"/>
        <path class="cls-2" d="M53.41,28.43c-2.06,0-4.12.06-6.18-.02-2.23-.08-3.53-2.05-2.37-3.65.45-.63,1.46-1.17,2.24-1.19,4.22-.11,8.44-.09,12.65-.04,1.61.02,2.56.99,2.6,2.35.03,1.42-.95,2.45-2.62,2.51-2.11.08-4.22.02-6.33.02,0,0,0,0,0,0Z"/>
        <path class="cls-2" d="M19.41,7.87c4.69-.03,8.63,3.6,8.98,8.26.35,4.72-3.08,8.96-7.77,9.57-.45.06-.91.1-1.35.05-1.34-.16-2.14-.99-2.21-2.28-.07-1.29.65-2.17,1.96-2.5.82-.21,1.71-.29,2.45-.66,1.63-.82,2.39-2.76,1.92-4.49-.5-1.87-2.08-3.07-3.99-3.05-1.89.02-3.5,1.32-3.91,3.16-.1.44-.1.9-.21,1.34-.35,1.37-1.32,2.06-2.65,1.91-1.26-.14-2.07-1.1-2.09-2.51-.09-4.72,4-8.76,8.89-8.79Z"/>
        <path class="cls-2" d="M19.5,28.77c1.32.02,2.36,1.08,2.36,2.41,0,1.31-1.06,2.41-2.36,2.43-1.33.02-2.51-1.19-2.47-2.51.05-1.3,1.16-2.35,2.47-2.33Z"/>
      </g>
      <g class="cls-1">
        <path class="cls-2" d="M154.72,100.71c-.65,1.12-1.63,1.65-2.92,1.86-1.93.31-3.84.77-5.92,1.21.39.97.72,1.83,1.08,2.69,2.16,5.2,4.32,10.4,6.47,15.6,1.01,2.44.58,3.48-1.83,4.49-2.41,1.01-4.82,2.02-7.25,3-2.18.88-3.22.43-4.15-1.76-.55-1.29-1.09-2.59-1.64-3.89-.02-.04-.08-.05-.27-.15-.04.4-.1.75-.11,1.1-.02,2.01.04,4.03-.07,6.04-.14,2.52-2.06,4.39-4.56,4.59-.4.03-.8.04-1.21.04-42.15,0-84.3,0-126.45,0-3.22,0-5.19-1.36-5.76-3.99-.13-.58-.13-1.2-.13-1.8,0-9.92,0-19.84,0-29.76,0-3.97,1.96-5.92,5.95-5.92,38.27,0,76.55,0,114.82,0h2v-5.52h-2.02c-38.02,0-76.04,0-114.06,0-.75,0-1.52,0-2.26-.11-2.59-.38-4.4-2.31-4.41-4.94-.04-10.47-.04-20.95,0-31.42.01-2.64,1.81-4.56,4.4-4.95.59-.09,1.2-.11,1.81-.11,41.9,0,83.8,0,125.7.02,1.18,0,2.46.15,3.51.63,2.1.96,2.77,2.86,2.76,5.11-.03,9.37,0,18.73-.03,28.1,0,1.09.29,1.87,1.08,2.65,4.63,4.56,9.21,9.17,13.79,13.77.6.6,1.12,1.27,1.68,1.91v1.51ZM133.24,52.04H39.01v31.46h83.86c0-.64,0-1.18,0-1.72,0-2.77,0-5.54,0-8.31,0-1.19.3-2.19,1.51-2.7,1.21-.51,2.14-.02,2.98.82,1.21,1.21,2.42,2.42,3.63,3.63.68.68,1.37,1.36,2.24,2.23v-25.41ZM38.99,130.54h94.3c0-6.14.02-12.18-.02-18.21,0-.96-.33-1.92-.55-3.16-2.09,1.36-3.88,2.55-5.7,3.69-2.16,1.36-4.08.36-4.13-2.18-.05-2.67-.01-5.34-.01-8.01,0-1.19,0-2.39,0-3.63H38.99v31.5ZM33.85,130.58v-31.55c-.35-.04-.59-.08-.83-.08-8.96,0-17.92.02-26.88-.03-1.17,0-1.27.53-1.27,1.46.02,9.66.01,19.33.02,28.99,0,.39.07.77.12,1.2h28.85ZM33.88,52.05H5v31.42h28.88v-31.42ZM127.88,79.44v26.99c1.29-.84,2.41-1.57,3.54-2.31,2.49-1.63,3.76-1.25,4.89,1.46,2.41,5.8,4.81,11.6,7.22,17.4.18.44.4.87.63,1.36,1.47-.61,2.79-1.17,4.16-1.75-.28-.71-.49-1.27-.72-1.82-2.38-5.76-4.78-11.51-7.13-17.28-.92-2.26-.23-3.53,2.15-4.07,1.47-.33,2.95-.64,4.35-.94-6.42-6.41-12.74-12.72-19.08-19.06Z"/>
        <path class="cls-2" d="M69.04,0c21,0,41.99,0,62.99,0,1.59,0,3.12.08,4.39,1.22,1.11.99,1.75,2.21,1.75,3.7,0,10.52.04,21.05-.02,31.57-.02,2.89-2.13,4.85-5.01,4.98-.45.02-.91,0-1.36,0-41.79,0-83.58,0-125.37,0-4.61,0-6.4-1.78-6.4-6.38,0-9.67,0-19.33,0-29C0,1.86,1.84,0,6.05,0c21,0,41.99,0,62.99,0ZM38.99,36.48h94.2V4.98H38.99v31.5ZM33.88,4.99H4.96c-.03.58-.07,1.07-.07,1.56,0,9.46.02,18.93-.03,28.39,0,1.33.33,1.7,1.68,1.69,8.61-.06,17.22-.03,25.82-.03h1.53V4.99Z"/>
        <path class="cls-2" d="M92.56,75.43c-6.94,0-13.89,0-20.83,0-.6,0-1.22,0-1.8-.1-1.13-.2-1.95-1-1.83-2.05.1-.86.72-1.79,1.38-2.4.42-.39,1.33-.33,2.02-.33,14.09-.02,28.18-.02,42.27,0,.69,0,1.6-.06,2.02.33.66.61,1.27,1.54,1.38,2.4.13,1.07-.7,1.85-1.82,2.05-.59.11-1.2.1-1.8.1-6.99,0-13.99,0-20.98,0Z"/>
        <path class="cls-2" d="M69.2,60.11c6.94,0,13.89,0,20.83,0,.6,0,1.22-.01,1.8.1,1.11.22,1.75.94,1.86,2.07.11,1.13-.35,2.01-1.4,2.41-.64.24-1.37.3-2.07.3-14.09.02-28.18.01-42.27,0-.6,0-1.22-.04-1.78-.21-1.16-.33-1.76-1.22-1.68-2.38.08-1.22.77-2.06,2.06-2.23.55-.07,1.1-.07,1.66-.07,6.99,0,13.99,0,20.98,0Z"/>
        <path class="cls-2" d="M53.45,75.43c-2.06,0-4.12.03-6.18-.01-1.77-.04-2.85-1.02-2.81-2.47.03-1.37,1.1-2.39,2.76-2.41,4.12-.05,8.24-.05,12.35,0,1.77.02,2.81,1.03,2.78,2.51-.02,1.45-1.07,2.34-2.88,2.37-2.01.03-4.02,0-6.03,0Z"/>
        <path class="cls-2" d="M69.21,112.04c-6.74,0-13.49,0-20.23,0-.35,0-.7,0-1.06,0-2.28-.02-3.47-.87-3.46-2.47.01-1.59,1.23-2.46,3.49-2.46,14.09,0,28.18,0,42.27,0,.55,0,1.11.04,1.64.16,1.24.29,1.89,1.13,1.84,2.4-.05,1.27-.75,2.05-2.01,2.25-.59.09-1.2.1-1.8.1-6.89,0-13.79,0-20.68,0Z"/>
        <path class="cls-2" d="M94,122.48c-7.44,0-14.89,0-22.33,0-.5,0-1.01.03-1.51-.04-1.31-.21-2.07-1-2.15-2.33-.08-1.26.85-2.28,2.17-2.46.45-.06.9-.04,1.36-.04,14.94,0,29.88,0,44.82,0,.45,0,.91-.02,1.36.04,1.33.2,2.05,1.04,2.16,2.33.11,1.2-.9,2.3-2.19,2.45-.65.08-1.31.04-1.96.04-7.24,0-14.49,0-21.73,0Z"/>
        <path class="cls-2" d="M53.49,122.48c-2.06,0-4.12.02-6.18,0-1.75-.02-2.86-.99-2.85-2.43,0-1.45,1.1-2.41,2.86-2.42,4.07-.02,8.14-.02,12.2,0,1.78.01,2.82.95,2.82,2.44,0,1.48-1.04,2.4-2.83,2.42-2.01.03-4.02,0-6.03,0Z"/>
        <path class="cls-2" d="M28.41,110.83c.04,4.68-3.64,8.67-8.26,8.96-1.83.12-2.92-.62-3.11-2.09-.18-1.4.81-2.46,2.57-2.75,2.92-.48,4.48-2.68,3.71-5.21-.56-1.82-2.28-3.05-4.1-2.92-1.86.13-3.43,1.51-3.78,3.35-.48,2.49-1.39,3.43-2.98,3.09-1.66-.36-2.29-1.81-1.81-4.16.91-4.38,5.1-7.53,9.51-7.13,4.64.42,8.21,4.25,8.25,8.86Z"/>
        <path class="cls-2" d="M21.86,125.23c.02,1.33-.99,2.4-2.32,2.43-1.34.03-2.43-.97-2.5-2.28-.07-1.33,1.1-2.55,2.42-2.55,1.3,0,2.38,1.08,2.4,2.4Z"/>
        <path class="cls-2" d="M28.41,63.8c.03,4.78-3.78,8.78-8.57,9.01-1.49.07-2.63-.82-2.79-2.18-.15-1.25.71-2.32,2.14-2.62.34-.07.69-.12,1.04-.19,2.04-.43,3.46-2.27,3.29-4.26-.18-2.07-1.81-3.65-3.86-3.75-2.08-.1-3.83,1.29-4.22,3.33-.46,2.44-1.4,3.4-3,3.07-1.57-.32-2.21-1.77-1.8-4.05.78-4.28,5.07-7.65,9.25-7.27,4.93.45,8.5,4.17,8.52,8.9Z"/>
        <path class="cls-2" d="M19.43,80.66c-1.28-.03-2.4-1.16-2.39-2.43,0-1.37,1.15-2.44,2.55-2.38,1.34.06,2.32,1.13,2.28,2.47-.04,1.32-1.14,2.38-2.44,2.35Z"/>
        <path class="cls-2" d="M96.71,23.5c8.25,0,16.5,0,24.76,0,2.45,0,3.62.79,3.65,2.41.02,1.68-1.21,2.51-3.73,2.51-16.55,0-33.11,0-49.66,0-2.51,0-3.75-.84-3.72-2.52.02-1.62,1.2-2.41,3.65-2.41,8.35,0,16.71,0,25.06,0Z"/>
        <path class="cls-2" d="M69.04,13.06c7.04,0,14.09,0,21.13,0,.45,0,.91-.02,1.36.03,1.34.17,2.22,1.16,2.18,2.45-.05,1.36-.82,2.12-2.12,2.34-.49.08-1,.05-1.51.05-13.99,0-27.98,0-41.97,0-2.46,0-3.63-.77-3.65-2.41-.03-1.64,1.17-2.46,3.59-2.46,6.99,0,13.99,0,20.98,0Z"/>
        <path class="cls-2" d="M53.41,28.43c-2.06,0-4.12.06-6.18-.02-2.23-.08-3.53-2.05-2.37-3.65.45-.63,1.46-1.17,2.24-1.19,4.22-.11,8.44-.09,12.65-.04,1.61.02,2.56.99,2.6,2.35.03,1.42-.95,2.45-2.62,2.51-2.11.08-4.22.02-6.33.02,0,0,0,0,0,0Z"/>
        <path class="cls-2" d="M19.41,7.87c4.69-.03,8.63,3.6,8.98,8.26.35,4.72-3.08,8.96-7.77,9.57-.45.06-.91.1-1.35.05-1.34-.16-2.14-.99-2.21-2.28-.07-1.29.65-2.17,1.96-2.5.82-.21,1.71-.29,2.45-.66,1.63-.82,2.39-2.76,1.92-4.49-.5-1.87-2.08-3.07-3.99-3.05-1.89.02-3.5,1.32-3.91,3.16-.1.44-.1.9-.21,1.34-.35,1.37-1.32,2.06-2.65,1.91-1.26-.14-2.07-1.1-2.09-2.51-.09-4.72,4-8.76,8.89-8.79Z"/>
        <path class="cls-2" d="M19.5,28.77c1.32.02,2.36,1.08,2.36,2.41,0,1.31-1.06,2.41-2.36,2.43-1.33.02-2.51-1.19-2.47-2.51.05-1.3,1.16-2.35,2.47-2.33Z"/>
      </g>
    </g>
  </g>
</svg>