<?xml version="1.0" encoding="UTF-8"?>
<svg id="Layer_2" data-name="Layer 2" xmlns="http://www.w3.org/2000/svg" viewBox="0 0 114.92 139.02">
  <defs>
    <style>
      .cls-1 {
        opacity: .7;
      }

      .cls-2 {
        fill: #85bf54;
      }
    </style>
  </defs>
  <g id="Layer_1-2" data-name="Layer 1">
    <g>
      <g>
        <path class="cls-2" d="M114.91,69.55c0,17.85,0,35.71,0,53.56,0,6.05-2.41,10.78-7.66,13.92-2.32,1.39-4.87,1.98-7.57,1.98-28.15,0-56.29.04-84.44-.03-8.79-.02-15.13-6.58-15.21-15.46-.05-5.15-.01-10.3-.01-15.44,0-30.7,0-61.4,0-92.1,0-6.73,2.84-11.79,9.01-14.6C10.98.49,13.31.08,15.46.07,43.47-.01,71.47-.02,99.48.03c9.08.01,15.42,6.58,15.43,15.82.02,17.9,0,35.8,0,53.7ZM84.66,18.2c0,1.08.02,2.06,0,3.04-.1,4.93-3.87,8.88-8.8,8.91-12.28.08-24.56.08-36.83,0-4.92-.03-8.67-4-8.76-8.95-.02-.98,0-1.96,0-2.87-.25-.09-.34-.15-.42-.15-2.5-.01-5-.03-7.51-.03-3.3,0-4.19.9-4.19,4.22,0,31.41,0,62.82,0,94.22,0,3.4.88,4.28,4.27,4.28,23.38,0,46.75,0,70.13,0,.52,0,1.04.02,1.56-.05,1.31-.16,2.17-.9,2.49-2.17.16-.63.18-1.31.18-1.96,0-31.46,0-62.91,0-94.37,0-.66-.02-1.33-.17-1.96-.29-1.22-1.11-2.09-2.35-2.13-3.15-.1-6.3-.03-9.59-.03ZM84.72,12.06c2.74,0,5.38,0,8.01,0,6.34,0,10.07,3.7,10.07,10,0,31.64,0,63.28,0,94.92,0,6.24-3.72,9.99-9.93,9.99-23.61,0-47.22,0-70.83,0-6.15,0-9.9-3.75-9.9-9.88,0-13.98,0-27.96,0-41.94,0-17.8,0-35.61-.01-53.41,0-2.46.61-4.66,2.25-6.53,1.93-2.2,4.41-3.15,7.29-3.15,2.82,0,5.64,0,8.49,0v-6.02c-4.84,0-9.56,0-14.28,0-5.99,0-9.75,3.72-9.76,9.69,0,35.84,0,71.69,0,107.53,0,.89.02,1.81.22,2.67.99,4.31,4.57,7.05,9.21,7.06,16.43.01,32.87,0,49.3,0,11.52,0,23.04,0,34.57,0,3.13,0,5.69-1.16,7.62-3.65,1.46-1.89,1.81-4.07,1.81-6.4-.02-26.97-.01-53.93-.01-80.9,0-8.78.01-17.57,0-26.35-.01-5.91-3.76-9.65-9.64-9.66-3.31,0-6.61,0-9.92,0-1.5,0-2.99,0-4.54,0v6.02ZM36.32,6.07c0,5.19-.06,10.23.03,15.27.03,1.74,1.33,2.81,3.12,2.82,11.99.02,23.99.02,35.98,0,1.84,0,3.12-1.12,3.14-2.96.07-4.96,0-9.91,0-14.87,0-.07-.11-.15-.2-.26h-42.07Z"/>
        <path class="cls-2" d="M72.53,66.47c4.86,0,9.73-.01,14.59,0,2.15,0,3.45,1.09,3.54,2.85.08,1.54-.81,2.76-2.33,3.1-.55.12-1.12.14-1.69.14-9.35,0-18.7,0-28.05,0-2.67,0-4.11-1.05-4.15-3-.04-1.99,1.45-3.09,4.2-3.09,4.63,0,9.26,0,13.88,0Z"/>
        <path class="cls-2" d="M72.53,102.74c4.86,0,9.73-.01,14.59,0,2.15,0,3.45,1.09,3.54,2.85.08,1.54-.81,2.76-2.33,3.1-.55.12-1.12.14-1.69.14-9.35,0-18.7,0-28.05,0-2.67,0-4.11-1.05-4.15-3-.04-1.99,1.45-3.09,4.2-3.09,4.63,0,9.26,0,13.88,0Z"/>
        <path class="cls-2" d="M72.62,48.33c-4.91,0-9.82-.01-14.73,0-1.27,0-2.33-.34-3.01-1.48-1.07-1.79-.02-4.1,2.06-4.49.37-.07.75-.05,1.13-.05,9.68,0,19.36,0,29.04,0,1.98,0,3.22.86,3.5,2.4.38,2.05-.98,3.59-3.26,3.61-4.91.03-9.82,0-14.73,0Z"/>
        <path class="cls-2" d="M72.62,84.6c-4.91,0-9.82-.01-14.73,0-1.27,0-2.33-.34-3.01-1.48-1.07-1.79-.02-4.1,2.06-4.49.37-.07.75-.05,1.13-.05,9.68,0,19.36,0,29.04,0,1.98,0,3.22.86,3.5,2.4.38,2.05-.98,3.59-3.26,3.61-4.91.03-9.82,0-14.73,0Z"/>
        <path class="cls-2" d="M72.62,54.42c4.82,0,9.63,0,14.45,0,2.33,0,3.62,1.12,3.59,3.05-.03,1.85-1.35,2.97-3.55,2.97-9.73,0-19.46,0-29.18,0-1.76,0-2.89-.72-3.31-2.1-.41-1.32-.1-2.52,1.03-3.25.66-.43,1.58-.63,2.38-.64,4.86-.06,9.73-.03,14.59-.03Z"/>
        <path class="cls-2" d="M72.62,90.7c4.82,0,9.63,0,14.45,0,2.33,0,3.62,1.12,3.59,3.05-.03,1.85-1.35,2.97-3.55,2.97-9.73,0-19.46,0-29.18,0-1.76,0-2.89-.72-3.31-2.1-.41-1.32-.1-2.52,1.03-3.25.66-.43,1.58-.63,2.38-.64,4.86-.06,9.73-.03,14.59-.03Z"/>
        <path class="cls-2" d="M33.37,53.36c1.11-1.22,2.09-2.36,3.14-3.43,2.01-2.06,4.06-4.08,6.09-6.1,1.8-1.79,3.54-1.99,4.91-.59,1.36,1.4,1.13,3.1-.69,4.92-3.03,3.03-6.06,6.07-9.1,9.1-.6.6-1.19,1.2-1.8,1.8-1.93,1.89-3.39,1.88-5.33-.05-1.74-1.73-3.48-3.46-5.2-5.2-1.44-1.46-1.55-3.25-.33-4.51,1.29-1.33,3.08-1.25,4.61.27,1.17,1.16,2.3,2.37,3.68,3.8Z"/>
        <path class="cls-2" d="M33.39,77.24c3.18-3.18,6.29-6.4,9.54-9.48.7-.67,1.86-1.09,2.85-1.16,1.14-.08,1.98.75,2.4,1.87.47,1.25.13,2.34-.76,3.25-1.68,1.73-3.4,3.41-5.1,5.11-2.17,2.17-4.33,4.35-6.51,6.51-1.74,1.72-3.3,1.73-5.04.02-1.78-1.75-3.55-3.52-5.31-5.31-1.5-1.52-1.62-3.36-.36-4.63,1.27-1.27,3.1-1.13,4.63.36,1.12,1.08,2.21,2.19,3.32,3.28.03.03.08.04.32.17Z"/>
        <path class="cls-2" d="M33.21,101.6c2.9-2.9,5.66-5.67,8.43-8.44.5-.5.99-1.02,1.51-1.5,1.35-1.24,3.13-1.28,4.32-.13,1.26,1.22,1.25,3-.09,4.41-1.17,1.23-2.4,2.41-3.6,3.61-2.64,2.64-5.27,5.29-7.91,7.91-1.79,1.78-3.36,1.78-5.13.02-1.78-1.76-3.55-3.53-5.31-5.31-1.44-1.46-1.56-3.27-.34-4.53,1.29-1.33,3.08-1.25,4.61.27,1.17,1.16,2.29,2.38,3.51,3.67Z"/>
      </g>
      <g class="cls-1">
        <path class="cls-2" d="M114.91,69.55c0,17.85,0,35.71,0,53.56,0,6.05-2.41,10.78-7.66,13.92-2.32,1.39-4.87,1.98-7.57,1.98-28.15,0-56.29.04-84.44-.03-8.79-.02-15.13-6.58-15.21-15.46-.05-5.15-.01-10.3-.01-15.44,0-30.7,0-61.4,0-92.1,0-6.73,2.84-11.79,9.01-14.6C10.98.49,13.31.08,15.46.07,43.47-.01,71.47-.02,99.48.03c9.08.01,15.42,6.58,15.43,15.82.02,17.9,0,35.8,0,53.7ZM84.66,18.2c0,1.08.02,2.06,0,3.04-.1,4.93-3.87,8.88-8.8,8.91-12.28.08-24.56.08-36.83,0-4.92-.03-8.67-4-8.76-8.95-.02-.98,0-1.96,0-2.87-.25-.09-.34-.15-.42-.15-2.5-.01-5-.03-7.51-.03-3.3,0-4.19.9-4.19,4.22,0,31.41,0,62.82,0,94.22,0,3.4.88,4.28,4.27,4.28,23.38,0,46.75,0,70.13,0,.52,0,1.04.02,1.56-.05,1.31-.16,2.17-.9,2.49-2.17.16-.63.18-1.31.18-1.96,0-31.46,0-62.91,0-94.37,0-.66-.02-1.33-.17-1.96-.29-1.22-1.11-2.09-2.35-2.13-3.15-.1-6.3-.03-9.59-.03ZM84.72,12.06c2.74,0,5.38,0,8.01,0,6.34,0,10.07,3.7,10.07,10,0,31.64,0,63.28,0,94.92,0,6.24-3.72,9.99-9.93,9.99-23.61,0-47.22,0-70.83,0-6.15,0-9.9-3.75-9.9-9.88,0-13.98,0-27.96,0-41.94,0-17.8,0-35.61-.01-53.41,0-2.46.61-4.66,2.25-6.53,1.93-2.2,4.41-3.15,7.29-3.15,2.82,0,5.64,0,8.49,0v-6.02c-4.84,0-9.56,0-14.28,0-5.99,0-9.75,3.72-9.76,9.69,0,35.84,0,71.69,0,107.53,0,.89.02,1.81.22,2.67.99,4.31,4.57,7.05,9.21,7.06,16.43.01,32.87,0,49.3,0,11.52,0,23.04,0,34.57,0,3.13,0,5.69-1.16,7.62-3.65,1.46-1.89,1.81-4.07,1.81-6.4-.02-26.97-.01-53.93-.01-80.9,0-8.78.01-17.57,0-26.35-.01-5.91-3.76-9.65-9.64-9.66-3.31,0-6.61,0-9.92,0-1.5,0-2.99,0-4.54,0v6.02ZM36.32,6.07c0,5.19-.06,10.23.03,15.27.03,1.74,1.33,2.81,3.12,2.82,11.99.02,23.99.02,35.98,0,1.84,0,3.12-1.12,3.14-2.96.07-4.96,0-9.91,0-14.87,0-.07-.11-.15-.2-.26h-42.07Z"/>
        <path class="cls-2" d="M72.53,66.47c4.86,0,9.73-.01,14.59,0,2.15,0,3.45,1.09,3.54,2.85.08,1.54-.81,2.76-2.33,3.1-.55.12-1.12.14-1.69.14-9.35,0-18.7,0-28.05,0-2.67,0-4.11-1.05-4.15-3-.04-1.99,1.45-3.09,4.2-3.09,4.63,0,9.26,0,13.88,0Z"/>
        <path class="cls-2" d="M72.53,102.74c4.86,0,9.73-.01,14.59,0,2.15,0,3.45,1.09,3.54,2.85.08,1.54-.81,2.76-2.33,3.1-.55.12-1.12.14-1.69.14-9.35,0-18.7,0-28.05,0-2.67,0-4.11-1.05-4.15-3-.04-1.99,1.45-3.09,4.2-3.09,4.63,0,9.26,0,13.88,0Z"/>
        <path class="cls-2" d="M72.62,48.33c-4.91,0-9.82-.01-14.73,0-1.27,0-2.33-.34-3.01-1.48-1.07-1.79-.02-4.1,2.06-4.49.37-.07.75-.05,1.13-.05,9.68,0,19.36,0,29.04,0,1.98,0,3.22.86,3.5,2.4.38,2.05-.98,3.59-3.26,3.61-4.91.03-9.82,0-14.73,0Z"/>
        <path class="cls-2" d="M72.62,84.6c-4.91,0-9.82-.01-14.73,0-1.27,0-2.33-.34-3.01-1.48-1.07-1.79-.02-4.1,2.06-4.49.37-.07.75-.05,1.13-.05,9.68,0,19.36,0,29.04,0,1.98,0,3.22.86,3.5,2.4.38,2.05-.98,3.59-3.26,3.61-4.91.03-9.82,0-14.73,0Z"/>
        <path class="cls-2" d="M72.62,54.42c4.82,0,9.63,0,14.45,0,2.33,0,3.62,1.12,3.59,3.05-.03,1.85-1.35,2.97-3.55,2.97-9.73,0-19.46,0-29.18,0-1.76,0-2.89-.72-3.31-2.1-.41-1.32-.1-2.52,1.03-3.25.66-.43,1.58-.63,2.38-.64,4.86-.06,9.73-.03,14.59-.03Z"/>
        <path class="cls-2" d="M72.62,90.7c4.82,0,9.63,0,14.45,0,2.33,0,3.62,1.12,3.59,3.05-.03,1.85-1.35,2.97-3.55,2.97-9.73,0-19.46,0-29.18,0-1.76,0-2.89-.72-3.31-2.1-.41-1.32-.1-2.52,1.03-3.25.66-.43,1.58-.63,2.38-.64,4.86-.06,9.73-.03,14.59-.03Z"/>
        <path class="cls-2" d="M33.37,53.36c1.11-1.22,2.09-2.36,3.14-3.43,2.01-2.06,4.06-4.08,6.09-6.1,1.8-1.79,3.54-1.99,4.91-.59,1.36,1.4,1.13,3.1-.69,4.92-3.03,3.03-6.06,6.07-9.1,9.1-.6.6-1.19,1.2-1.8,1.8-1.93,1.89-3.39,1.88-5.33-.05-1.74-1.73-3.48-3.46-5.2-5.2-1.44-1.46-1.55-3.25-.33-4.51,1.29-1.33,3.08-1.25,4.61.27,1.17,1.16,2.3,2.37,3.68,3.8Z"/>
        <path class="cls-2" d="M33.39,77.24c3.18-3.18,6.29-6.4,9.54-9.48.7-.67,1.86-1.09,2.85-1.16,1.14-.08,1.98.75,2.4,1.87.47,1.25.13,2.34-.76,3.25-1.68,1.73-3.4,3.41-5.1,5.11-2.17,2.17-4.33,4.35-6.51,6.51-1.74,1.72-3.3,1.73-5.04.02-1.78-1.75-3.55-3.52-5.31-5.31-1.5-1.52-1.62-3.36-.36-4.63,1.27-1.27,3.1-1.13,4.63.36,1.12,1.08,2.21,2.19,3.32,3.28.03.03.08.04.32.17Z"/>
        <path class="cls-2" d="M33.21,101.6c2.9-2.9,5.66-5.67,8.43-8.44.5-.5.99-1.02,1.51-1.5,1.35-1.24,3.13-1.28,4.32-.13,1.26,1.22,1.25,3-.09,4.41-1.17,1.23-2.4,2.41-3.6,3.61-2.64,2.64-5.27,5.29-7.91,7.91-1.79,1.78-3.36,1.78-5.13.02-1.78-1.76-3.55-3.53-5.31-5.31-1.44-1.46-1.56-3.27-.34-4.53,1.29-1.33,3.08-1.25,4.61.27,1.17,1.16,2.29,2.38,3.51,3.67Z"/>
      </g>
    </g>
  </g>
</svg>