<?xml version="1.0" encoding="UTF-8"?>
<svg id="Layer_2" data-name="Layer 2" xmlns="http://www.w3.org/2000/svg" viewBox="0 0 120 119.95">
  <defs>
    <style>
      .cls-1 {
        fill: #85bf54;
      }
    </style>
  </defs>
  <g id="Layer_1-2" data-name="Layer 1">
    <g>
      <g>
        <path class="cls-1" d="M70.29,95.26h-20.57v20.55h20.57v-20.55ZM4.24,78.71c-.04.25-.07.37-.07.48,0,2.27-.01,4.53-.01,6.79,0,3.61,1.46,5.07,5.06,5.07h101.58c.32,0,.65,0,.97,0,2.29-.08,3.97-1.69,4.06-3.99.07-1.93.02-3.88.03-5.82v-2.54H4.24ZM115.85,74.45V8.96c0-3.29-1.53-4.81-4.82-4.81H8.95c-3.28,0-4.8,1.53-4.8,4.83,0,21.38,0,42.76,0,64.14,0,.43.04.86.06,1.33h111.63ZM74.55,95.19v20.65h6.01v4.11h-41.15v-4.07h6.01v-20.69H9.05C3.38,95.19,0,91.82,0,86.15,0,60.44,0,34.74,0,9.04,0,3.36,3.37,0,9.05,0,43.04,0,77.02,0,111,0c5.61,0,8.99,3.37,8.99,8.97,0,25.74,0,51.48,0,77.23,0,5.59-3.41,8.98-8.98,8.98h-36.46"/>
        <path class="cls-1" d="M66.2,59.98c-.01-1.14-.97-2.05-2.12-2.02-1.1.02-1.96.91-1.98,2.01-.01,1.17.88,2.09,2.04,2.08,1.15,0,2.07-.94,2.06-2.07M14.41,24.83c1.11.03,2.11-.93,2.14-2.04.02-1.06-.87-2.01-1.95-2.07-1.17-.07-2.11.79-2.15,1.95-.04,1.17.83,2.13,1.97,2.16M12.44,55.82c0,3.47,2.73,6.24,6.2,6.25,3.35,0,6.18-2.8,6.19-6.16,0-3.44-2.81-6.26-6.22-6.25-3.39.01-6.15,2.77-6.16,6.16M45.48,39.38c0-3.48-2.73-6.27-6.17-6.27-3.37,0-6.18,2.77-6.21,6.14-.04,3.44,2.73,6.23,6.2,6.25,3.41.02,6.17-2.71,6.18-6.11M64.43,40.89c-3.62-1.13-6.45-3.22-8.51-6.43-1.86.79-3.66,1.58-5.49,2.31-.71.28-.86.66-.9,1.43-.1,1.71-.31,3.44-.74,5.08-.22.83-.1,1.2.5,1.69,3.56,2.92,7.07,5.88,10.62,8.81.48.4.82,1.01,1.74.61.89-.38,1.35-.8,1.34-1.81,0-.8.2-1.6.29-2.39.38-3.08.76-6.15,1.15-9.3M68.22,37.23c5.75,0,10.41-4.63,10.41-10.37,0-5.66-4.68-10.3-10.37-10.28-5.72.01-10.31,4.6-10.33,10.3-.02,5.69,4.61,10.35,10.29,10.35M31.96,31.93c4.83-4.3,11.66-3.95,15.93,1.45,1.9-.82,3.81-1.67,5.75-2.45.73-.3.52-.77.42-1.28-1.54-7.91,3.64-15.5,11.6-16.98,7.66-1.43,14.92,3.41,16.75,11.18,1.7,7.26-2.89,14.93-10.19,16.96-1.16.32-2.36.46-3.68.71-.33,2.63-.68,5.34-1.02,8.06-.17,1.32-.39,2.64-.46,3.97-.02.45.25,1.08.61,1.35,2.57,1.98,3.4,5.22,1.96,7.99-1.42,2.72-4.64,3.99-7.54,2.98-2.95-1.03-4.57-3.94-4.04-7.16.06-.39,0-1.01-.26-1.23-3.97-3.37-7.98-6.69-11.98-10.04-4.41,3-8.77,2.98-13.17-.13-1.43,1.15-2.91,2.27-4.29,3.5-.24.22-.22.94-.08,1.33,2.23,6.03-1.28,12.56-7.51,13.88-4.54.97-9.28-1.3-11.39-5.46-2.11-4.17-1.14-9.29,2.36-12.4,3.52-3.13,8.66-3.51,12.57-.93.3.2.59.42.96.67,1.44-1.15,2.91-2.28,4.32-3.48.22-.18.32-.72.22-1.01-1.09-3.36-1.12-4.31-.13-8.03-3.79-2.53-7.61-5.08-11.44-7.64-1.63,1.03-3.33,1.51-5.22,1.03-3.29-.83-5.29-3.97-4.63-7.31.63-3.23,3.84-5.4,7.18-4.84,3.14.52,5.41,3.56,5.12,6.79-.04.42.15,1.05.46,1.26,3.57,2.44,7.17,4.82,10.82,7.25"/>
      </g>
      <rect class="cls-1" x="89.05" y="12.49" width="20.56" height="3.98"/>
      <rect class="cls-1" x="89.02" y="37.32" width="20.59" height="3.96"/>
      <rect class="cls-1" x="89.02" y="62.19" width="20.56" height="3.97"/>
      <rect class="cls-1" x="89.05" y="29.04" width="16.44" height="3.99"/>
      <rect class="cls-1" x="89.01" y="53.89" width="16.47" height="3.96"/>
      <rect class="cls-1" x="89.05" y="45.56" width="12.29" height="4.01"/>
      <rect class="cls-1" x="89.04" y="20.75" width="8.13" height="4.04"/>
      <rect class="cls-1" x="55.94" y="82.85" width="8.13" height="3.99"/>
    </g>
  </g>
</svg>