<?xml version="1.0" encoding="UTF-8"?>
<svg id="Layer_2" data-name="Layer 2" xmlns="http://www.w3.org/2000/svg" viewBox="0 0 144.01 144">
  <defs>
    <style>
      .cls-1 {
        fill: #85bf54;
      }
    </style>
  </defs>
  <g id="Layer_1-2" data-name="Layer 1">
    <g>
      <path class="cls-1" d="M0,37.69c1.44-2.46,4.23-2.16,4.79.7l.02,94.48c.42,2.02,1.47,4.05,3.26,5.18.32.2,2.59,1.17,2.77,1.17h58.64v-5.48c-7.81-3.82-16.84-4.43-25.46-4.09-10.7.42-21.67,2.35-32.06,4.8-1.56-.1-2.41-1.46-2.39-2.95V26.58c.07-.56.2-1.25.56-1.7.98-1.21,9.74-2.78,11.77-3.14,14.92-2.66,33.6-4.47,47.93,1.11,1.71.67,4.71,1.52,4.71,3.73v91.55c13.11-7.38,26.71-13.87,40.78-19.27V5.91c-12.24,4.87-23.82,11.19-35.15,17.87-2.09.84-4.03-1.17-3.17-3.17.43-1,4.32-3.07,5.5-3.78,6.65-3.97,14.16-7.9,21.18-11.16,3.05-1.42,10.34-5.05,13.25-5.6,2.1-.4,3.26,1.19,3.18,3.16v96.49c-.12,1.62-.13,2.56-1.7,3.37-2.73,1.4-6.82,2.42-9.84,3.66-12.51,5.17-24.42,11.51-36.22,18.09-2.25.05-2.73-1.51-2.89-3.46l-.03-93.49c-2.91-1.06-5.87-2.11-8.91-2.76-8.66-1.86-19.46-1.09-28.28-.05-6.02.71-11.94,2.03-17.89,3.06v100.69c6.21-1.1,12.42-2.41,18.71-3.09,13.21-1.44,26.71-1.79,39.09,3.62,16.1-6.04,33.59-5.21,50.25-2.12,2.44.45,4.84,1.08,7.26,1.6V28.41c-1.75-.45-5.08-.45-5.08-2.95,0-.97.97-2.12,1.9-2.33.88-.2,5.75.7,6.63,1.13s1.24,1.37,1.33,2.33v104.64c.1,1.77-.78,3.16-2.64,3.2-15.46-3.99-33.04-6.72-48.83-3.21-2.84.63-5.65,1.58-8.43,2.39v5.62h58.64c.18,0,2.44-.97,2.77-1.17,1.78-1.13,2.83-3.16,3.26-5.18l.02-94.48c.52-3.15,4.28-3.15,4.79,0v94.22c-.4,4.7-3.17,8.7-7.53,10.48l-3.17.91H10.69c-3.17-.65-5.79-1.84-7.88-4.35-1.61-1.93-2.25-3.93-2.81-6.33V37.69Z"/>
      <path class="cls-1" d="M10.69,144H0v-10.69c.56,2.41,1.2,4.41,2.81,6.33,2.1,2.51,4.72,3.7,7.88,4.35Z"/>
      <path class="cls-1" d="M43.82,86.43c3.34-.07,12.06.16,14.88,1.54,2.04,1,1.37,4.1-.69,4.51-1.11.22-5.13-.92-6.69-1.08-8.13-.81-17.03.52-25.01,2.23-3.74-1.56-2.79-4.05.79-5.08,4.75-1.37,11.75-2.02,16.71-2.13Z"/>
      <path class="cls-1" d="M39.6,101.05c5.18-.32,12.81-.41,17.78.9,1.83.48,2.98,1.09,2.47,3.32-.66,2.9-7.15.63-9.37.49-4.04-.27-9.14-.09-13.18.31-3.34.34-7.47,1.73-10.48,1.91s-3.82-3.38-1.42-4.54c2.53-1.22,11.14-2.2,14.2-2.39Z"/>
      <path class="cls-1" d="M59.25,45.09c1.41,1.28.59,4.14-1.46,4.14-8.08-1.58-16.03-1.4-24.14-.25-1.9.27-5.81,1.49-7.35,1.38-2.59-.18-3.42-3.56-.21-4.72,6.98-2.52,24.9-3.3,31.9-1.12.39.12.96.3,1.26.57Z"/>
      <path class="cls-1" d="M41.57,72.08c3.64-.19,14.14-.08,17.13,1.55,1.45.79,1.7,2.84.39,3.88-1.41,1.1-5.59-.27-7.48-.44-8.58-.75-17.09.38-25.46,2.12-2.45-.33-2.83-3.49-.62-4.59,1.2-.6,4.71-1.13,6.21-1.39,3.2-.54,6.61-.95,9.84-1.12Z"/>
      <path class="cls-1" d="M41,57.74c4.61-.26,12.6-.22,16.94,1.17,2.77.89,2.6,4.38-.15,4.66-8.07-1.46-15.78-1.38-23.87-.25-2.01.28-6.59,1.67-8.19,1.36-1.92-.37-2.45-3.47-.26-4.47,3.08-1.4,11.92-2.27,15.52-2.48Z"/>
      <path class="cls-1" d="M104.83,84.16c3.25-.48,4.26,2.95,1.86,4.39-1.63.98-5.3,1.93-7.32,2.8-4,1.74-11.08,6-14.77,6.89-2.8.67-4.24-2.61-1.44-4.55,2.91-2.02,10.96-5.36,14.53-6.85,1.8-.75,5.41-2.44,7.15-2.7Z"/>
      <path class="cls-1" d="M82.21,54.47c-2.68-2.93,2.72-4.84,4.59-5.78,4.19-2.1,13.89-7.02,18.09-7.79,2.51-.46,4.17,2.16,2.27,3.97-1.07,1.02-8.04,3.4-10.05,4.3-4.1,1.85-8.1,3.92-12.18,5.82-.87.32-2.1.17-2.73-.52Z"/>
      <path class="cls-1" d="M82.21,79.96c3.56-2,7.25-3.8,10.97-5.48,2.47-1.12,9.91-4.7,12.14-4.75,2.69-.07,3.59,2.45,1.65,4.2-4.07,1.6-8.11,3.27-12.1,5.05-2.04.91-9.56,5.07-11.1,4.96-2.08-.15-2.77-2.46-1.56-3.98Z"/>
      <path class="cls-1" d="M104.84,26.5c2.85-.44,4.43,2.79,1.86,4.4-1.86,1.16-6.13,2.34-8.45,3.37-4.5,1.99-8.9,4.24-13.36,6.33-2.78.8-4.62-2.4-2.01-4.26,2.47-1.76,8.18-4.11,11.15-5.44,2.5-1.11,8.44-4.03,10.81-4.39Z"/>
      <path class="cls-1" d="M105.39,55.18c2.41-.21,3.51,2.89,1.59,4.41-3.7,1.4-7.38,2.86-10.99,4.48-2.78,1.25-8.33,4.62-10.77,5.26-3.08.81-4.82-1.77-2.64-4.05,4.73-2.32,9.4-4.78,14.26-6.84,1.87-.79,6.85-3.12,8.55-3.27Z"/>
    </g>
  </g>
</svg>