<svg version="1.2" xmlns="http://www.w3.org/2000/svg" viewBox="0 0 499 393" width="499" height="393"><defs><clipPath clipPathUnits="userSpaceOnUse" id="cp1"><path d="m-0.1 438.14h914.39v-558.76h-914.39z"/></clipPath><clipPath clipPathUnits="userSpaceOnUse" id="cp2"><path d="m-136.11 335.29c-18.74-9.06-36.33-19.26-52.82-30.36q12.12-3.31 24.72-5.58c15.36-2.77 30.65-4.22 45.77-4.47q-9.35 19.38-17.67 40.41z"/></clipPath><clipPath clipPathUnits="userSpaceOnUse" id="cp3"><path d="m-85.07 235.11q-8.58 13.33-16.64 27.63c-28.53-3.26-58-2.5-87.73 2.86-13.32 2.39-26.27 5.63-38.81 9.65-11.9-10.02-23.12-20.45-33.67-31.15 15.19-5.19 30.97-9.32 47.26-12.25 19.16-3.46 38.23-5.12 57.04-5.12 24.77 0 49.07 2.89 72.55 8.38z"/></clipPath><clipPath clipPathUnits="userSpaceOnUse" id="cp4"><path d="m-4.54 137.97q-3.57 3.35-7.11 6.82c-89.8-70.31-208.06-103.48-329.14-81.67q-19.72 3.56-38.65 8.87c-19.75-42.29-28.15-71.62-28.16-71.67 201.27 7.78 325.9 67.88 403.06 137.65z"/></clipPath><clipPath clipPathUnits="userSpaceOnUse" id="cp5"><path d="m-24.6 157.94q-7.03 7.41-13.91 15.25c-73.77-41.63-161.94-58.77-251.83-42.58-17.32 3.12-34.15 7.37-50.42 12.69-7.58-12.13-14.42-24-20.58-35.38 14.85-4.53 30.12-8.23 45.78-11.06 23.72-4.26 47.33-6.33 70.62-6.33 80.18 0 156.51 24.47 220.34 67.41z"/></clipPath><clipPath clipPathUnits="userSpaceOnUse" id="cp6"><path d="m-53.3 190.84q-7.94 9.92-15.56 20.49c-53.18-18.46-111.69-23.92-171.03-13.23-17.78 3.21-34.98 7.75-51.53 13.49-9.35-11.16-18.05-22.45-26.13-33.67 16.86-5.75 34.37-10.31 52.44-13.56 21.45-3.87 42.81-5.73 63.87-5.73 52.07 0 102.35 11.4 147.94 32.21z"/></clipPath><clipPath clipPathUnits="userSpaceOnUse" id="cp7"><path d="m127.54 309.92c25.21 0 50.84 3.01 76.41 9.32q13.99 3.45 27.37 8.04c-82.08 47.97-185.32 76.78-312.71 61.12 57.01-49.68 131.03-78.48 208.92-78.48z"/></clipPath><clipPath clipPathUnits="userSpaceOnUse" id="cp8"><path d="m178.85 236.45c28.57 0 57.61 3.42 86.6 10.57 18.09 4.46 35.52 10.21 52.21 17.13-12.62 11.26-25.96 22.19-40.05 32.6-13.79-5.41-28.12-9.98-42.91-13.62-125.96-31.06-252.83 12.63-333.88 102.82q-6.24-0.95-12.58-2.06c67.19-91.59 175.14-147.44 290.6-147.44z"/></clipPath><clipPath clipPathUnits="userSpaceOnUse" id="cp9"><path d="m281.46 89.53c35.29 0 71.18 4.23 106.98 13.05 17.39 4.29 34.28 9.54 50.64 15.69-7.74 12.34-16.27 25.18-25.64 38.27-17.91-7.12-36.51-13.11-55.75-17.85-186.75-46.04-375.1 39.35-467.6 197.28 3.42-10.77 7.82-23.04 13.48-36.34v-0.02c80.64-129.61 223.85-210.07 377.86-210.08z"/></clipPath><clipPath clipPathUnits="userSpaceOnUse" id="cp10"><path d="m468.88 0.32c9.78 0 19.76 0.12 29.85 0.37 0 0-11.51 32.36-36.75 78.5q-20.89-7.3-42.78-12.72c-184.6-45.51-370.62 25.73-480.27 166.7 69.52-107.17 217.58-232.85 529.9-232.85z"/></clipPath><clipPath clipPathUnits="userSpaceOnUse" id="cp11"><path d="m230.16 163c31.93 0 64.4 3.82 96.78 11.8 20.07 4.95 39.41 11.33 57.94 18.98-9.87 12.03-20.45 24.09-31.75 35.96-18.18-7.63-37.19-13.96-56.94-18.83-165.59-40.83-332.61 33.19-417.1 171.33q-0.04-0.01-0.07-0.01c0 0 0.88-7.49 3.91-20.36 71.87-122.43 204.41-198.87 347.22-198.87z"/></clipPath></defs><style>.a{fill:#fff}</style><g clip-path="url(#cp1)" style="opacity:.2"><g style="opacity:.1"><g clip-path="url(#cp2)"><path class="a" d="m-208.8 318.9l61.8 51 48.4-58.6-61.8-51z"/><path class="a" d="m-136.1 335.3c-18.7-9.1-36.3-19.3-52.8-30.4q12.1-3.3 24.7-5.6c15.4-2.7 30.6-4.2 45.8-4.4q-9.4 19.4-17.7 40.4z"/></g><g clip-path="url(#cp3)"><path class="a" d="m-285.7 255.6l128.9 106.5 95.5-115.7-128.9-106.5z"/><path class="a" d="m-85.1 235.1q-8.6 13.3-16.6 27.6c-28.5-3.2-58-2.5-87.7 2.9-13.4 2.4-26.3 5.6-38.8 9.7-12-10.1-23.2-20.5-33.7-31.2 15.2-5.2 31-9.3 47.2-12.2 19.2-3.5 38.3-5.2 57.1-5.2 24.7 0 49.1 2.9 72.5 8.4z"/></g><g clip-path="url(#cp4)"><path class="a" d="m-478.5 86.2l310.5 256.5 234.4-283.8-310.6-256.5z"/><path class="a" d="m-4.5 138q-3.6 3.3-7.1 6.8c-89.8-70.3-208.1-103.5-329.2-81.7q-19.7 3.6-38.6 8.9c-19.8-42.3-28.2-71.6-28.2-71.7 201.3 7.8 325.9 67.9 403.1 137.7z"/></g><g clip-path="url(#cp5)"><path class="a" d="m-401.9 139.7l240.8 198.8 177.1-214.5-240.8-198.8z"/><path class="a" d="m-24.6 157.9q-7 7.5-13.9 15.3c-73.8-41.6-161.9-58.8-251.8-42.6-17.4 3.1-34.2 7.4-50.5 12.7-7.5-12.1-14.4-24-20.5-35.4 14.8-4.5 30.1-8.2 45.7-11 23.8-4.3 47.4-6.4 70.7-6.4 80.1 0 156.5 24.5 220.3 67.4z"/></g><g clip-path="url(#cp6)"><path class="a" d="m-343.6 190.1l183.2 151.2 133.1-161.2-183.1-151.2z"/><path class="a" d="m-53.3 190.8q-7.9 10-15.6 20.5c-53.1-18.4-111.6-23.9-171-13.2-17.8 3.2-35 7.7-51.5 13.5-9.4-11.2-18.1-22.5-26.2-33.7 16.9-5.7 34.4-10.3 52.5-13.5 21.4-3.9 42.8-5.8 63.9-5.8 52 0 102.3 11.4 147.9 32.2z"/></g><g clip-path="url(#cp7)"><path class="a" d="m253.2 315.3l-316.7-78.1-39.8 161.5 316.7 78z"/><path class="a" d="m127.5 309.9c25.2 0 50.9 3 76.4 9.3q14 3.5 27.4 8.1c-82.1 47.9-185.3 76.8-312.7 61.1 57-49.7 131-78.5 208.9-78.5z"/></g><g clip-path="url(#cp8)"><path class="a" d="m352.4 245l-439.5-108.4-59.4 240.8 439.6 108.4z"/><path class="a" d="m178.9 236.4c28.5 0 57.6 3.5 86.6 10.6 18 4.5 35.5 10.2 52.2 17.2-12.7 11.2-26 22.1-40.1 32.5-13.8-5.4-28.1-9.9-42.9-13.6-126-31-252.8 12.7-333.9 102.8q-6.2-0.9-12.6-2c67.2-91.6 175.2-147.5 290.6-147.5z"/></g><g clip-path="url(#cp9)"><path class="a" d="m496.4 103.7l-574.8-141.8-88.8 359.9 574.8 141.8z"/><path class="a" d="m281.5 89.5c35.3 0 71.1 4.3 106.9 13.1 17.4 4.3 34.3 9.5 50.7 15.7-7.8 12.3-16.3 25.2-25.7 38.2-17.9-7.1-36.5-13.1-55.7-17.8-186.8-46.1-375.1 39.3-467.6 197.3 3.4-10.8 7.8-23.1 13.5-36.4 80.6-129.6 223.8-210.1 377.8-210.1z"/></g><g clip-path="url(#cp10)"><path class="a" d="m552.9 13.7l-581.9-143.5-86.2 349.6 581.9 143.5z"/><path class="a" d="m468.9 0.3c9.8 0 19.7 0.1 29.8 0.4 0 0-11.5 32.4-36.7 78.5q-20.9-7.3-42.8-12.7c-184.6-45.5-370.6 25.7-480.3 166.7 69.5-107.2 217.6-232.9 529.9-232.9z"/></g><g clip-path="url(#cp11)"><path class="a" d="m435.8 175.6l-527.8-130.2-79.9 324.3 527.8 130.1z"/><path class="a" d="m230.2 163c31.9 0 64.4 3.8 96.7 11.8 20.1 5 39.5 11.3 58 19-9.9 12-20.5 24.1-31.8 35.9-18.1-7.6-37.2-13.9-56.9-18.8-165.6-40.8-332.6 33.2-417.1 171.3q-0.1 0-0.1 0c0 0 0.9-7.5 3.9-20.3 71.9-122.5 204.4-198.9 347.2-198.9z"/></g></g></g></svg>