<?xml version="1.0" encoding="UTF-8"?>
<svg id="Layer_2" data-name="Layer 2" xmlns="http://www.w3.org/2000/svg" viewBox="0 0 121.7 95">
  <defs>
    <style>
      .cls-1 {
        fill: #85bf54;
        fill-rule: evenodd;
      }
    </style>
  </defs>
  <g id="Layer_1-2" data-name="Layer 1">
    <g>
      <path class="cls-1" d="M63.44,5.81c-1.6-.75-3.46-.75-5.06,0L7.19,29.77l51.2,23.96c1.6.75,3.46.75,5.06,0l51.07-23.96L63.44,5.81ZM56.16,1.06c3.01-1.41,6.5-1.41,9.51,0l53.83,25.26c2.93,1.37,2.93,5.53,0,6.91l-53.83,25.26c-3.01,1.41-6.5,1.41-9.51,0L2.2,33.23c-2.93-1.37-2.93-5.54,0-6.91L56.16,1.06Z"/>
      <path class="cls-1" d="M98.87,38.32c.76.48,1.21,1.32,1.21,2.21v25.35c0,1.45-1.17,2.62-2.62,2.62s-2.62-1.17-2.62-2.62v-21.23l-29.32,13.7c-3,1.4-6.48,1.4-9.48,0l-28.76-13.42v17.84c0,4.65,2.67,8.82,6.85,10.8.02,0,.04.02.05.03l1.1.55c16.15,7.45,34.87,7.45,51.01-.01h0s2.39-1.13,2.39-1.13c1.31-.62,2.87-.05,3.49,1.26.62,1.31.05,2.87-1.26,3.49l-2.41,1.13h-.02c-17.55,8.12-37.9,8.12-55.46,0-.02-.01-.05-.02-.07-.03l-1.11-.55c-6-2.84-9.83-8.86-9.83-15.53v-21.95c0-1.45,1.17-2.62,2.62-2.62.38,0,.76.08,1.11.25l32.49,15.16c1.6.75,3.45.75,5.04,0l33.05-15.44c.81-.38,1.76-.32,2.52.16h0Z"/>
      <path class="cls-1" d="M58.4,29.02c.41-1.39,1.88-2.18,3.26-1.76l36.54,10.91c1.11.33,1.87,1.35,1.87,2.51v25.35c0,1.45-1.17,2.62-2.62,2.62s-2.62-1.17-2.62-2.62v-23.4l-34.67-10.35c-1.39-.41-2.18-1.88-1.76-3.26h0Z"/>
      <path class="cls-1" d="M97.32,68.65c-2.8,0-5.03,2.23-5.03,5.03v16.07h10.05v-16.07c0-2.8-2.23-5.03-5.03-5.03h0ZM107.59,91.53v-17.84c0-5.7-4.57-10.27-10.27-10.27s-10.27,4.57-10.27,10.27v18.7c0,1.45,1.17,2.62,2.62,2.62h15.44c1.45,0,2.62-1.17,2.62-2.62,0-.3-.05-.59-.14-.85h0Z"/>
    </g>
  </g>
</svg>