<svg version="1.2" xmlns="http://www.w3.org/2000/svg" viewBox="0 0 101 100" width="101" height="100"><style>.a{fill:#73c040}</style><path fill-rule="evenodd" class="a" d="m100.1 27.6v70.7c0 0.9-0.8 1.7-1.7 1.7h-96.6c-0.9 0-1.7-0.8-1.7-1.7v-70.7c0-1.9 1.6-3.5 3.5-3.5h10.3v-13.8c-1.9 0-3.4-1.5-3.4-3.4v-3.5c0-1.9 1.5-3.4 3.4-3.4h72.4c1.9 0 3.5 1.5 3.5 3.4v3.5c0 1.9-1.6 3.4-3.5 3.4v13.8h10.4c1.9 0 3.4 1.6 3.4 3.5zm-86.2-20.7h72.4v-3.5h-72.4zm-10.3 89.7h10.3v-69h-10.3zm79.3 0v-86.2h-65.5v86.2h20.6v-27.6c0-0.9 0.8-1.7 1.8-1.7h20.7c0.9 0 1.7 0.8 1.7 1.7v27.6zm-24.2-25.8h-17.2v3.4h17.2zm0 25.9v-19h-17.2v19zm37.9-69h-10.3v69h10.3z"/><path fill-rule="evenodd" class="a" d="m32.9 37.9h-6.9c-1 0-1.8 0.8-1.8 1.7v6.9c0 1 0.8 1.8 1.8 1.8h6.9c0.9 0 1.7-0.8 1.7-1.8v-6.9c0-0.9-0.8-1.7-1.7-1.7zm-1.8 6.9h-3.4v-3.4h3.4zm15.6-6.9h-6.9c-1 0-1.8 0.7-1.8 1.7v6.9c0 0.9 0.8 1.7 1.8 1.7h6.9c0.9 0 1.7-0.8 1.7-1.7v-6.9c0-1-0.8-1.7-1.7-1.7zm-1.8 6.9h-3.4v-3.5h3.4zm15.6-6.9h-6.9c-1 0-1.8 0.8-1.8 1.7v6.9c0 1 0.8 1.8 1.8 1.8h6.9c0.9 0 1.7-0.8 1.7-1.8v-6.9c0-0.9-0.8-1.7-1.7-1.7zm-1.8 6.9h-3.4v-3.4h3.4zm15.5-6.9h-6.8c-1 0-1.8 0.7-1.8 1.7v6.9c0 0.9 0.8 1.7 1.8 1.7h6.8c1 0 1.8-0.8 1.8-1.7v-6.9c0-1-0.8-1.7-1.8-1.7zm-1.7 6.9h-3.4v-3.5h3.4zm-39.6-20.6h-6.9c-1 0-1.8 0.8-1.8 1.8v6.9c0 0.9 0.8 1.7 1.8 1.7h6.9c0.9 0 1.7-0.8 1.7-1.7v-6.9c0-1-0.8-1.8-1.7-1.8zm-1.8 6.9h-3.4v-3.4h3.4zm15.6-6.9h-6.9c-1 0-1.8 0.8-1.8 1.7v6.9c0 1 0.8 1.7 1.8 1.7h6.9c0.9 0 1.7-0.7 1.7-1.7v-6.9c0-0.9-0.8-1.7-1.7-1.7zm-1.8 6.9h-3.4v-3.5h3.4zm15.6-6.9h-6.9c-1 0-1.8 0.8-1.8 1.8v6.9c0 0.9 0.8 1.7 1.8 1.7h6.9c0.9 0 1.7-0.8 1.7-1.7v-6.9c0-1-0.8-1.8-1.7-1.8zm-1.8 6.9h-3.4v-3.4h3.4zm15.5-6.9h-6.8c-1 0-1.8 0.8-1.8 1.7v6.9c0 1 0.8 1.7 1.8 1.7h6.8c1 0 1.8-0.7 1.8-1.7v-6.9c0-0.9-0.8-1.7-1.8-1.7zm-1.7 6.9h-3.4v-3.5h3.4zm-39.6 20.6h-6.9c-1 0-1.8 0.8-1.8 1.7v6.9c0 1 0.8 1.8 1.8 1.8h6.9c0.9 0 1.7-0.8 1.7-1.8v-6.9c0-0.9-0.8-1.7-1.7-1.7zm-1.8 6.9h-3.4v-3.4h3.4zm15.6-6.9h-6.9c-1 0-1.8 0.7-1.8 1.7v6.9c0 0.9 0.8 1.7 1.8 1.7h6.9c0.9 0 1.7-0.8 1.7-1.7v-6.9c0-1-0.8-1.7-1.7-1.7zm-1.8 6.9h-3.4v-3.5h3.4zm15.6-6.9h-6.9c-1 0-1.8 0.8-1.8 1.7v6.9c0 1 0.8 1.8 1.8 1.8h6.9c0.9 0 1.7-0.8 1.7-1.8v-6.9c0-0.9-0.8-1.7-1.7-1.7zm-1.8 6.9h-3.4v-3.4h3.4zm15.5-6.9h-6.8c-1 0-1.8 0.7-1.8 1.7v6.9c0 0.9 0.8 1.7 1.8 1.7h6.8c1 0 1.8-0.8 1.8-1.7v-6.9c0-1-0.8-1.7-1.8-1.7zm-1.7 6.9h-3.4v-3.5h3.4zm-39.6 8.6h-6.9c-1 0-1.8 0.8-1.8 1.8v6.9c0 0.9 0.8 1.7 1.8 1.7h6.9c0.9 0 1.7-0.8 1.7-1.7v-6.9c0-1-0.8-1.8-1.7-1.8zm-1.8 6.9h-3.4v-3.4h3.4zm43.1-6.9h-6.8c-1 0-1.8 0.8-1.8 1.7v6.9c0 1 0.8 1.7 1.8 1.7h6.8c1 0 1.8-0.7 1.8-1.7v-6.9c0-0.9-0.8-1.7-1.8-1.7zm-1.7 6.9h-3.4v-3.5h3.4zm-39.6 6.9h-6.9c-1 0-1.8 0.8-1.8 1.8v6.9c0 0.9 0.8 1.7 1.8 1.7h6.9c0.9 0 1.7-0.8 1.7-1.7v-6.9c0-1-0.8-1.8-1.7-1.8zm-1.8 6.9h-3.4v-3.4h3.4zm43.1-6.9h-6.8c-1 0-1.8 0.8-1.8 1.7v6.9c0 1 0.8 1.7 1.8 1.7h6.8c1 0 1.8-0.7 1.8-1.7v-6.9c0-0.9-0.8-1.7-1.8-1.7zm-1.7 6.9h-3.4v-3.5h3.4z"/></svg>