<?xml version="1.0" encoding="UTF-8"?>
<svg id="Layer_2" data-name="Layer 2" xmlns="http://www.w3.org/2000/svg" viewBox="0 0 89.37 109">
  <defs>
    <style>
      .cls-1 {
        fill: #85bf54;
        fill-rule: evenodd;
      }
    </style>
  </defs>
  <g id="Layer_1-2" data-name="Layer 1">
    <path class="cls-1" d="M83.14,41.45c-.83,0-2.71-3.24-2.71-5.58,0-1.5,1.21-2.71,2.71-2.71s2.71,1.21,2.71,2.71c0,2.34-1.88,5.58-2.71,5.58ZM43.52,35.16c-2.2,1.06-6.73.74-9.67-.66L5.85,21.1c-1.68-.81-2.06-1.56-2.07-1.69.02-.05.19-.27.68-.51l30.78-14.76c.88-.43,2.15-.63,3.53-.63,2.06,0,4.4.45,6.15,1.29l27.32,13.08h-32.86c-.97,0-1.76.79-1.76,1.76s.79,1.76,1.76,1.76h32.85l-28.71,13.75ZM62.63,45.24v-15.34l-17.58,8.42c-1.36.66-3.18.97-5.12.97-2.56,0-5.35-.56-7.6-1.64l-16.52-7.91v15.49c-.02.86.51,1.63,1.32,1.93,7.04,2.73,14.53,4.13,22.09,4.12,7.56.01,15.05-1.38,22.09-4.12.81-.29,1.34-1.07,1.32-1.93h0ZM39.44,67.8c-9.42,0-17.52-6.65-19.37-15.89,6.2,1.92,12.65,2.89,19.14,2.88,6.66,0,13.27-1.02,19.62-3.04-1.77,9.31-9.91,16.05-19.39,16.04h0ZM48.7,72.53l-8.87,8.87-9.03-9.03c2.82-.7,5.72-1.05,8.63-1.05h.02c3.13,0,6.24.41,9.26,1.22ZM56.71,75.75c-1.37-.76-2.8-1.42-4.26-1.99l-10.33,10.33,3.36,4.89,11.24-13.23h0ZM75.32,105.48c-.55-11.21-6.32-21.52-15.58-27.87l-13.07,15.39c-.33.39-.82.62-1.34.62h-.09c-.55-.03-1.05-.31-1.36-.76l-4.04-5.88-4.04,5.88c-.31.45-.81.73-1.36.76h-.08c-.52,0-1-.23-1.34-.62l-13.39-15.72c-9.54,6.31-15.5,16.77-16.07,28.19h71.76ZM27,73.54c-1.48.55-2.92,1.19-4.32,1.93l11.52,13.51,3.36-4.89-10.55-10.55h0ZM84.9,29.9v-6.22c0-3.2-2.59-5.78-5.79-5.79h-1.2c-.66-1.08-1.83-2.05-3.48-2.84L46.44,1.64c-3.96-1.89-9.54-2.2-12.72-.66L2.93,15.72c-2.33,1.12-2.68,2.77-2.68,3.66,0,1.89,1.44,3.62,4.07,4.87l7.97,3.81v17.17c0,2.31,1.41,4.38,3.57,5.21l.47.17c.89,8.02,5.87,15,13.16,18.46-.82.22-1.63.46-2.44.72-.09.02-.19.05-.28.09-2.61.89-5.13,2.05-7.5,3.47-.14.06-.28.14-.4.24C7.15,80.77,0,93.51,0,107.24c0,.97.79,1.76,1.76,1.76h75.36c.97,0,1.76-.79,1.76-1.76,0-13.52-6.94-26.1-18.37-33.32-.11-.09-.24-.17-.37-.24-2.34-1.45-4.82-2.65-7.4-3.58-.09-.04-.18-.07-.28-.1-1-.35-2.01-.66-3.04-.93,7.35-3.48,12.34-10.55,13.17-18.64,2.16-.82,3.58-2.9,3.57-5.21v-17.01l9.68-4.64c1.32-.63,2-1.43,2.34-2.18h.94c1.25,0,2.27,1.02,2.27,2.27v6.22c-2.65.78-4.46,3.21-4.46,5.97,0,3.12,2.42,9.1,6.22,9.1s6.23-5.97,6.23-9.1c0-2.76-1.83-5.19-4.47-5.97Z"/>
  </g>
</svg>