<svg version="1.2" xmlns="http://www.w3.org/2000/svg" viewBox="0 0 99 110" width="99" height="110"><style>.a{fill:#73c040}</style><path fill-rule="evenodd" class="a" d="m98.7 24.8v53.7c0 4.4-3.6 8-8 8h-30.7v9.5h2.9c6.6 0 11.9 5.3 11.9 11.8v1.9h-49.9v-1.9c0-6.5 5.3-11.8 11.8-11.8h2.9v-9.5h-30.6c-4.4 0-8-3.6-8-8v-53.7c0-4.4 3.6-8 8-8h6.5l34.3-16.6 34.3 16.6h6.6c4.4 0 8 3.6 8 8zm-93.9 0v45.6h90.1v-45.6c0-2.3-1.9-4.2-4.2-4.2h-4.9v18.1c2.5 0.8 4.3 3.2 4.3 5.9v19.9h-12.4v-19.9c0-2.7 1.8-5.1 4.3-5.9v-16.8l-7.4 3.5v10.1c0 2.8-1.5 5.3-4 6.5l-17.6 8.5c-1 0.5-2.1 0.7-3.1 0.7-1.1 0-2.2-0.2-3.2-0.7l-17.6-8.5c-2.4-1.2-4-3.7-4-6.5v-10l-10-4.9h-6.1c-2.3 0-4.2 1.9-4.2 4.2zm76.7 25.9v10h4.8v-10zm-61.4-31.9l29.7 14.4 25.9-12.5h-25.8v-3.8h25.8l-25.9-12.5zm8.8 16.8c0 1.2 0.8 2.4 1.9 3l17.2 8.3v-10.4l-19.1-9.2zm22.9 11.4l17.2-8.4c1.1-0.5 1.9-1.7 1.9-3v-8.3l-19.1 9.3zm34.6 0v-2.3c0-1.3-1.1-2.4-2.4-2.4-1.4 0-2.4 1.1-2.4 2.4v2.3zm-49.6 52.8c-3.8 0-7 2.7-7.9 6.2h41.9c-0.8-3.5-4-6.2-7.8-6.2zm19.5-13.3h-12.8v9.5h12.8zm38.6-8v-4.3h-90.1v4.3c0 2.3 1.9 4.2 4.2 4.2h81.7c2.4 0 4.2-1.9 4.2-4.2z"/><path class="a" d="m55 76.3q-5.5-0.1-11.1 0c-1.4 0-2.2 0.8-2.2 1.9 0 1.2 0.8 1.9 2.2 2q2.8 0 5.6 0 2.7 0 5.5 0c1.4-0.1 2.2-0.8 2.2-2 0-1.1-0.8-1.9-2.2-1.9z"/></svg>