<?xml version="1.0" encoding="UTF-8"?>
<svg version="1.1" viewBox="0 0 1283 1275" width="1280" height="1280" xmlns="http://www.w3.org/2000/svg">
<path transform="translate(230,44)" d="m0 0h10l10 5 6 7 2 6v139l-4 8-7 6-7 3h-10l-8-3-6-5-4-7-1-4v-67l-50 1-16 3-16 7-10 7-10 9-7 10-7 14-4 15-1 8v691l2 14 5 14 6 11 8 10 7 7 14 9 14 6 17 3 664 1 8 4 6 7 3 7v10l-3 8-5 6-7 4-4 1h-668l-19-3-18-6-16-8-12-8-14-12-9-10-10-15-8-16-5-15-3-14-1-8v-704l3-19 7-21 8-15 10-14 12-13 12-10 15-9 13-6 16-5 17-3h56v-22l3-8 5-6 7-4z" fill="#fff"/>
<path transform="translate(1030,85)" d="m0 0h13l21 5 15 6 16 9 14 11 12 12 10 14 8 14 7 19 4 19v529l-4 8-7 6-9 3-11-1-8-5-5-6-3-8v-381h-937l-10-5-6-8-2-7 1-11 5-8 7-6 6-2h936l-1-92-4-16-4-10-7-11-11-12-13-9-11-5-16-4-9-2-8-5-4-5-3-7v-11l5-10 7-6z" fill="#fff"/>
<path transform="translate(987,770)" d="m0 0h51l10 5 6 7 2 5v14l-6 10-8 5-3 1h-23v165l-3 9-6 7-8 4-5 1-53 1 29 43 29 44 29 43 14 21 15 22 4-4 29-44 29-43 29-44 26-39h-54l-9-3-8-7-4-9v-195l3-8 4-5 8-5 4-1h9l10 4 7 8 2 5v168h76l9 3 8 7 4 8v11l-3 8-56 83-29 44-29 43-28 42-23 34-9 6-3 1h-11l-10-5-6-7-29-44-16-23-29-44-29-43-29-44-21-31-9-14-2-4v-14l6-10 7-5 7-2h76v-164l3-9 7-8z" fill="#fff"/>
<path transform="translate(592,44)" d="m0 0h10l9 4 7 8 3 9v132l-3 9-7 8-9 4h-10l-9-4-7-8-3-8v-66h-84l-10-5-6-8-2-6v-9l3-8 5-6 10-5h84v-21l4-10 7-7z" fill="#fff"/>
<path transform="translate(953,44)" d="m0 0h10l9 4 7 8 2 4 1 6v130l-2 8-4 6-7 6-6 2h-10l-9-4-7-8-3-8v-66h-84l-10-5-6-8-2-6v-9l3-8 5-6 10-5h84v-21l4-10 7-7z" fill="#fff"/>
<path transform="translate(772,44)" d="m0 0h10l10 5 6 7 2 5v140l-4 8-7 6-7 3h-10l-8-3-5-4-4-6-2-6v-67h-84l-10-5-5-6-3-7v-11l5-10 6-5 7-3h84v-22l4-9 5-5 6-4z" fill="#fff"/>
<path transform="translate(411,44)" d="m0 0h10l10 5 6 7 2 5v140l-4 8-7 6-7 3h-10l-8-3-5-4-4-6-2-7v-66h-84l-10-5-6-8-2-5v-11l5-10 6-5 7-3h84v-21l3-9 4-5 8-5z" fill="#fff"/>
<path transform="translate(1009,692)" d="m0 0h9l11 4 7 8 3 8v8l-4 10-8 7-9 3-11-1-9-5-6-7-3-9 1-10 4-8 7-6z" fill="#fff"/>
<path transform="translate(1007,447)" d="m0 0h12l10 4 7 8 3 8v8l-4 10-8 7-5 2-8 1-9-2-9-6-6-9-1-9 2-9 4-6 6-5z" fill="#fff"/>
<path transform="translate(1e3 570)" d="m0 0h16l10 5 6 8 2 7v7l-3 9-4 5-8 5-3 1h-11l-10-4-7-7-3-6-1-9 2-8 5-8 6-4z" fill="#fff"/>
<path transform="translate(600,692)" d="m0 0h8l11 4 7 8 3 8v8l-4 10-8 7-9 3-11-1-10-6-6-9-1-4v-9l3-8 6-7 6-3z" fill="#fff"/>
<path transform="translate(734,815)" d="m0 0h12l8 3 6 5 4 7 1 4v10l-5 10-7 6-5 2h-13l-10-5-6-7-3-9 1-10 4-8 7-6z" fill="#fff"/>
<path transform="translate(599,447)" d="m0 0h10l10 4 7 8 3 8v8l-4 10-8 7-5 2-8 1-9-2-6-4-7-8-2-6v-9l4-10 8-7z" fill="#fff"/>
<path transform="translate(736,692)" d="m0 0h8l9 3 8 7 4 9v10l-4 9-8 7-9 3-10-1-8-4-8-9-2-7 1-11 3-6 4-5 7-4z" fill="#fff"/>
<path transform="translate(733,570)" d="m0 0h14l10 5 5 6 3 7v10l-3 8-5 6-10 5h-11l-8-3-7-6-4-7-1-11 4-11 8-7z" fill="#fff"/>
<path transform="translate(460,570)" d="m0 0h15l8 4 7 8 3 9-1 10-5 8-7 6-6 2h-11l-10-5-7-8-2-5v-11l3-8 5-6z" fill="#fff"/>
<path transform="translate(735,447)" d="m0 0h10l8 3 8 7 3 5 1 4v10l-4 9-8 7-5 2-8 1-9-2-8-6-4-5-3-8 1-11 4-8 6-5z" fill="#fff"/>
<path transform="translate(189,815)" d="m0 0h12l8 3 6 5 5 10v11l-4 9-8 7-5 2h-13l-10-5-6-7-3-10 2-12 6-8 6-4z" fill="#fff"/>
<path transform="translate(872,692)" d="m0 0h8l9 3 6 4 5 8 1 3v12l-5 10-8 6-7 2h-7l-9-3-9-8-3-7v-13l4-8 8-7z" fill="#fff"/>
<path transform="translate(464,692)" d="m0 0h7l10 3 7 6 4 8 1 9-3 10-6 7-8 4-10 1-9-3-8-6-5-10v-11l5-10 6-5z" fill="#fff"/>
<path transform="translate(328,692)" d="m0 0h7l10 3 6 5 5 10v12l-5 10-8 6-7 2-11-1-8-4-7-8-2-5v-13l4-8 8-7z" fill="#fff"/>
<path transform="translate(191,692)" d="m0 0h8l9 3 8 7 4 8v12l-4 8-9 8-7 2h-7l-11-4-7-7-3-6-1-8 2-9 5-8 6-4z" fill="#fff"/>
<path transform="translate(597,570)" d="m0 0h14l10 5 6 8 2 7v7l-3 9-4 5-8 5-3 1h-11l-8-3-8-7-4-9v-9l3-9 7-7z" fill="#fff"/>
<path transform="translate(188,570)" d="m0 0h14l9 4 6 7 3 7v11l-5 10-6 5-7 3h-11l-9-4-5-4-4-6-2-11 2-9 4-6 6-5z" fill="#fff"/>
<path transform="translate(597,815)" d="m0 0h13l8 3 7 7 3 6 1 4v7l-3 9-5 6-10 5h-12l-9-4-8-9-2-6v-9l4-10 8-7z" fill="#fff"/>
<path transform="translate(869,570)" d="m0 0h14l7 3 7 6 4 8v12l-4 9-8 7-6 2h-11l-9-4-5-4-5-9v-14l4-8 7-6z" fill="#fff"/>
<path transform="translate(461,815)" d="m0 0h13l9 4 7 8 2 4 1 10-3 9-5 7-10 5h-12l-9-4-7-7-3-7v-11l3-8 7-7z" fill="#fff"/>
<path transform="translate(871,447)" d="m0 0h10l9 3 6 5 5 10v12l-4 8-8 7-4 2-9 1-8-2-8-5-6-8-1-3v-13l5-10 9-6z" fill="#fff"/>
<path transform="translate(325,815)" d="m0 0h13l10 5 6 7 2 5v13l-4 8-8 7-5 2h-13l-8-4-5-4-5-9v-13l5-10 9-6z" fill="#fff"/>
<path transform="translate(324,570)" d="m0 0h15l8 4 7 8 2 5v13l-4 8-8 7-6 2h-11l-9-4-7-7-3-7v-12l5-10 8-6z" fill="#fff"/>
</svg>
